<?xml version="1.0" encoding="UTF-8"?>
<svg id="Layer_1" xmlns="http://www.w3.org/2000/svg" viewBox="0 0 1062.47 1003.25">
  <defs>
    <style>
      .cls-1 { fill: #fb034f; }
      .cls-2 { fill: #09a696; }
      .cls-3 { fill: #254342; }
      .cls-4 { fill: #fba005; }

      /* ─── Splash sequence ──────────────────────────────────────────────
         The icon (palms + sun) opens BIG and centered on screen, holds a beat,
         then settles into its composed position on the left. Once it lands,
         "30 sundays" reveals to the right and the lockup comes alive.

         0.00s        Icon stage starts at scale 1.5, shifted so the icon
                      sits at viewBox center (≈25% of screen wide)
         0.10–0.95s   Teal & coral fade-scale in at the big size
         0.55–1.10s   Sun body emerges
         0.55–1.25s   Rays bloom in sequence (45ms stagger, small overshoot)
         1.40–2.30s   Icon stage shrinks back to composed position
         2.15–2.75s   "30 sundays" wordmark rises softly
         2.80s+       Living lockup — palms sway, rays orbit slowly
         ───────────────────────────────────────────────────────────────────── */

      /* Icon-stage: zooms in big, holds, then settles to composed position.
         translate uses % of fill-box width — icon fill-box is ~230 viewBox
         units wide, so 128% ≈ 294 units, which puts icon centre at viewBox
         centre (~531) at scale 1.5. */
      .icon-stage {
        transform-origin: 50% 50%;
        transform-box: fill-box;
        animation: spStageSettle 2.3s cubic-bezier(0.32, 0.72, 0, 1) forwards;
      }

      /* The two arrive (inside the big-scale stage) */
      .palm-teal-grp {
        transform-origin: 50% 100%;
        transform-box: fill-box;
        opacity: 0;
        /* Sway begins right as arrival ends (0.95s) — so the palm is already
           waving while the icon is still big-and-centered, and keeps waving
           through the shrink + the wordmark reveal. No gap, no jerk. */
        animation:
          spArrive   0.85s cubic-bezier(0.22, 1, 0.36, 1) 0.10s forwards,
          spSwayTeal 4.4s  ease-in-out 0.95s infinite;
      }
      /* Coral (the "red mountain") — static after arrival, no sway */
      .palm-coral-grp {
        transform-origin: 50% 100%;
        transform-box: fill-box;
        opacity: 0;
        animation: spArrive 0.85s cubic-bezier(0.22, 1, 0.36, 1) 0.18s forwards;
      }

      /* Sun body fades in inside the big-scale stage */
      .sun-body {
        transform-origin: 50% 50%;
        transform-box: fill-box;
        opacity: 0;
        animation: spSunIn 0.55s cubic-bezier(0.22, 1, 0.36, 1) 0.55s forwards;
      }

      /* Sun-rays group: stays put — rays are composed, not symmetrical,
         so rotating them as a group breaks the smiley-sun shape. */
      .sun-rays {
        transform-origin: 50% 50%;
        transform-box: fill-box;
      }

      /* Each ray blooms in with light overshoot, staggered ~45ms */
      .ray-1, .ray-2, .ray-3, .ray-4, .ray-5, .ray-6 {
        transform-origin: 50% 50%;
        transform-box: fill-box;
        opacity: 0;
        animation: spRayBloom 0.55s cubic-bezier(0.22, 1, 0.36, 1) forwards;
      }
      .ray-1 { animation-delay: 0.55s; }
      .ray-2 { animation-delay: 0.595s; }
      .ray-3 { animation-delay: 0.64s; }
      .ray-4 { animation-delay: 0.685s; }
      .ray-5 { animation-delay: 0.73s; }
      .ray-6 { animation-delay: 0.775s; }

      /* Wordmark arrives only after the icon has landed */
      .wordmark-grp {
        transform-origin: 50% 50%;
        transform-box: fill-box;
        opacity: 0;
        animation: spWordmarkRise 0.6s cubic-bezier(0.22, 1, 0.36, 1) 2.15s forwards;
      }

      /* ─── Keyframes ───────────────────────────────────────────── */
      @keyframes spStageSettle {
        0%   { transform: translateX(128%) scale(1.5); }
        60%  { transform: translateX(128%) scale(1.5); }  /* hold ~1.38s */
        100% { transform: translateX(0)    scale(1); }     /* settle */
      }

      @keyframes spArrive {
        0%   { opacity: 0; transform: scale(0.78) rotate(0deg); }
        100% { opacity: 1; transform: scale(1)    rotate(0deg); }
      }
      /* Tree sway — pendulum timing.
         Per-segment timing so the palm crosses centre at max velocity
         (no pause at 0°) and only briefly slows at each extreme to
         reverse direction. ease-out on each approach to an extreme,
         ease-in on each return — eliminates the "freeze" at +2.2°. */
      @keyframes spSwayTeal {
        0%   { transform: scale(1) rotate(   0deg); animation-timing-function: ease-out; }
        25%  { transform: scale(1) rotate(-2.2deg); animation-timing-function: ease-in;  }
        50%  { transform: scale(1) rotate(   0deg); animation-timing-function: ease-out; }
        75%  { transform: scale(1) rotate( 2.2deg); animation-timing-function: ease-in;  }
        100% { transform: scale(1) rotate(   0deg); }
      }
      @keyframes spSunIn {
        0%   { opacity: 0; transform: scale(0.82); }
        100% { opacity: 1; transform: scale(1); }
      }
      @keyframes spRayBloom {
        0%   { opacity: 0; transform: scale(0); }
        60%  { opacity: 1; transform: scale(1.25); }
        100% { opacity: 1; transform: scale(1); }
      }
      @keyframes spWordmarkRise {
        0%   { opacity: 0; transform: translateY(12px); }
        100% { opacity: 1; transform: translateY(0); }
      }
    </style>
  </defs>

  <!-- ═══ Wordmark "30 sundays" ═══ -->
  <g class="wordmark-grp">
    <path class="cls-3" d="M397.96,588.71c-5.32-3.9-9.07-9.31-11.26-16.23l4.69-1.65c1.98,6.04,5.19,10.71,9.62,14.01,4.43,3.3,9.62,4.94,15.56,4.94,6.46,0,11.73-1.7,15.8-5.11,4.07-3.4,6.1-7.8,6.1-13.19,0-3.95-1.02-7.14-3.05-9.56-2.03-2.42-4.48-4.31-7.35-5.69-2.87-1.37-7.17-3.1-12.9-5.19-5.74-2.09-10.32-4.09-13.77-6.02-3.44-1.92-6.18-4.37-8.21-7.33-2.03-2.97-3.05-6.7-3.05-11.21,0-6.37,2.37-11.59,7.12-15.66,4.74-4.06,10.82-6.1,18.22-6.1,6.15,0,11.65,1.68,16.5,5.03,4.85,3.35,8.26,7.89,10.25,13.6l-4.38,1.81c-1.67-4.94-4.51-8.79-8.52-11.54-4.02-2.75-8.63-4.12-13.84-4.12-6.15,0-11.11,1.54-14.86,4.61-3.75,3.08-5.63,7.14-5.63,12.2,0,3.74.86,6.79,2.58,9.15,1.72,2.36,4.07,4.31,7.04,5.85,2.97,1.54,7.12,3.24,12.44,5.11,5.73,2.09,10.38,4.04,13.92,5.85,3.54,1.81,6.49,4.28,8.84,7.42,2.35,3.13,3.52,7.12,3.52,11.95,0,4.4-1.15,8.32-3.44,11.78-2.3,3.46-5.47,6.18-9.54,8.16-4.07,1.98-8.66,2.97-13.76,2.97-7.09,0-13.3-1.95-18.61-5.85Z"/>
    <path class="cls-3" d="M416.57,596.97c-7.58,0-14.32-2.13-20.04-6.32-5.71-4.19-9.8-10.06-12.13-17.45l-.7-2.22,9.22-3.24.77,2.34c1.81,5.53,4.76,9.85,8.77,12.83,4.04,3.01,8.66,4.47,14.13,4.47,5.85,0,10.65-1.53,14.25-4.55,3.53-2.95,5.24-6.66,5.24-11.34,0-3.4-.81-6.02-2.49-8.01-1.8-2.14-4-3.84-6.55-5.07-2.8-1.34-7.07-3.05-12.69-5.1-5.82-2.11-10.57-4.19-14.12-6.18-3.75-2.09-6.79-4.81-9.02-8.08-2.3-3.36-3.47-7.59-3.47-12.57,0-7.08,2.68-12.96,7.96-17.49,5.17-4.43,11.83-6.68,19.79-6.68,6.62,0,12.63,1.83,17.87,5.45,5.26,3.63,9.01,8.61,11.15,14.79l.74,2.15-8.86,3.67-.82-2.44c-1.51-4.48-4-7.85-7.6-10.32-3.59-2.45-7.79-3.7-12.48-3.7-5.55,0-10.04,1.37-13.33,4.07-3.2,2.62-4.75,6-4.75,10.33,0,3.2.71,5.8,2.12,7.73,1.49,2.05,3.58,3.77,6.2,5.13,2.86,1.48,6.94,3.16,12.13,4.98,5.83,2.12,10.61,4.13,14.22,5.98,3.86,1.97,7.11,4.71,9.67,8.12,2.65,3.54,4,8.05,4,13.39,0,4.85-1.29,9.27-3.84,13.11-2.53,3.81-6.06,6.84-10.5,9-4.38,2.13-9.36,3.21-14.82,3.21ZM389.77,573.95c2.09,5.36,5.32,9.67,9.61,12.82h0c2.65,1.95,5.58,3.37,8.74,4.26-3.09-.9-5.95-2.32-8.56-4.26-4.23-3.15-7.47-7.47-9.63-12.88l-.17.06ZM405.35,544.37c2.92,1.42,6.49,2.9,10.64,4.41,5.77,2.1,10.18,3.87,13.12,5.28,3.17,1.52,5.91,3.64,8.16,6.31,2.4,2.86,3.62,6.59,3.62,11.11,0,3.77-.89,7.14-2.67,10.08,1.81-2.95,2.7-6.2,2.7-9.92,0-4.28-1.02-7.81-3.04-10.51-2.11-2.82-4.81-5.08-8.01-6.72-3.44-1.76-8.03-3.69-13.65-5.73-4.37-1.53-8.01-2.98-10.87-4.32ZM393.05,521.9c-.34,1.44-.5,2.97-.5,4.59,0,3.99.88,7.3,2.63,9.85,1.16,1.69,2.6,3.21,4.29,4.54-1.49-1.18-2.78-2.52-3.85-3.98-2.02-2.77-3.04-6.32-3.04-10.56,0-1.55.16-3.03.47-4.42Z"/>
    <path class="cls-3" d="M464.07,585.58c-5.55-5.99-8.32-13.98-8.32-23.98v-55.05h5.27v54.72c0,8.79,2.33,15.71,7,20.77,4.67,5.06,10.9,7.58,18.71,7.58,5.38,0,10.3-1.46,14.75-4.37,4.45-2.91,7.97-6.89,10.55-11.95,2.58-5.05,3.87-10.6,3.87-16.65v-50.1h5.27v86.2h-5.11l-.16-19.12c-2.75,6.37-6.81,11.45-12.2,15.25-5.39,3.79-11.37,5.69-17.97,5.69-8.9,0-16.13-2.99-21.67-8.98Z"/>
    <path class="cls-3" d="M485.74,597.03c-9.58,0-17.48-3.29-23.49-9.77-5.96-6.43-8.98-15.06-8.98-25.66v-57.52h10.22v57.19c0,8.11,2.14,14.53,6.35,19.09,4.22,4.57,9.74,6.79,16.89,6.79,4.87,0,9.38-1.33,13.4-3.96,4.06-2.66,7.33-6.36,9.7-11,2.39-4.68,3.6-9.9,3.6-15.52v-52.58h10.22v91.15h-10.03l-.11-12.48c-2.35,3.16-5.15,5.88-8.38,8.16-5.79,4.07-12.31,6.14-19.39,6.14ZM458.22,509.02v52.58c0,9.31,2.58,16.81,7.66,22.3h0c5.1,5.51,11.6,8.19,19.86,8.19.16,0,.32,0,.48,0-8.25-.11-14.98-2.93-20.01-8.37-5.08-5.5-7.66-13.05-7.66-22.44v-52.25h-.33ZM518.52,590.27h.19v-81.26h-.33v47.63c0,2.04-.14,4.03-.42,5.97l.32-.74.24,28.39Z"/>
    <path class="cls-3" d="M588.48,517.26c-4.67-5.05-10.96-7.58-18.87-7.58-5.38,0-10.3,1.46-14.75,4.37-4.45,2.91-7.97,6.9-10.55,11.95-2.58,5.06-3.87,10.61-3.87,16.65v50.11h-5.27v-86.2h5.27v19.28c2.75-6.37,6.84-11.48,12.28-15.33,5.44-3.84,11.45-5.77,18.05-5.77,8.9,0,16.12,3,21.67,8.98,5.55,5.99,8.32,13.98,8.32,23.98v55.05h-5.27v-54.72c0-8.79-2.34-15.71-7-20.77Z"/>
    <path class="cls-3" d="M603.24,595.22h-10.22v-57.19c0-8.1-2.14-14.53-6.35-19.09-4.22-4.57-9.8-6.79-17.06-6.79-4.87,0-9.37,1.33-13.4,3.96-4.07,2.66-7.33,6.37-9.7,11.01-2.39,4.68-3.6,9.9-3.6,15.52v52.58h-10.22v-91.15h10.22v12.55c2.35-3.13,5.15-5.85,8.38-8.14,5.84-4.13,12.4-6.22,19.48-6.22,9.57,0,17.48,3.29,23.49,9.77,5.96,6.44,8.98,15.07,8.98,25.66v57.52ZM597.96,590.27h.33v-52.58c0-9.31-2.58-16.81-7.67-22.3-5.11-5.51-11.6-8.19-19.86-8.19-.18,0-.37,0-.55,0,8.31.13,15.06,2.94,20.08,8.37h0c5.08,5.51,7.66,13.06,7.66,22.45v52.25ZM537.64,590.27h.33v-47.63c0-1.94.13-3.85.38-5.71l-.38.89v-28.8h-.33v81.26Z"/>
    <path class="cls-3" d="M635.09,588.71c-6.76-3.9-12.09-9.28-15.99-16.15-3.9-6.87-5.85-14.53-5.85-22.99s1.92-16.1,5.77-22.91c3.84-6.81,9.17-12.17,15.99-16.07,6.81-3.9,14.39-5.85,22.75-5.85,9.01,0,17.08,2.25,24.23,6.76,7.14,4.51,12.53,10.55,16.15,18.13v-57.19h5.27v120.32h-5.11v-23.57c-3.52,7.8-8.87,13.98-16.07,18.54-7.2,4.56-15.36,6.84-24.48,6.84-8.35,0-15.91-1.95-22.66-5.85ZM678.93,584.42c6.1-3.46,10.88-8.24,14.34-14.34,3.46-6.1,5.19-12.94,5.19-20.52s-1.73-14.39-5.19-20.44c-3.46-6.04-8.24-10.8-14.34-14.26-6.1-3.46-12.94-5.19-20.52-5.19s-14.56,1.71-20.6,5.11c-6.04,3.41-10.77,8.16-14.17,14.26-3.41,6.1-5.11,12.94-5.11,20.52s1.73,14.42,5.19,20.52c3.46,6.1,8.21,10.88,14.26,14.34,6.04,3.46,12.86,5.19,20.44,5.19s14.42-1.73,20.52-5.19Z"/>
    <path class="cls-3" d="M657.75,597.03c-8.75,0-16.79-2.08-23.9-6.18-7.11-4.1-12.8-9.85-16.9-17.07-4.1-7.21-6.17-15.36-6.17-24.21s2.05-16.97,6.09-24.12c4.05-7.17,9.74-12.89,16.91-17,7.16-4.1,15.23-6.18,23.97-6.18,9.44,0,18.04,2.4,25.55,7.14,4.88,3.08,9.02,6.88,12.36,11.36v-50.8h10.22v125.26h-10.05v-16.86c-3.29,4.53-7.4,8.36-12.27,11.45-7.56,4.79-16.24,7.22-25.8,7.22ZM657.75,507.2c-7.87,0-15.11,1.86-21.52,5.53-6.39,3.66-11.46,8.75-15.06,15.14-3.62,6.4-5.45,13.7-5.45,21.69s1.86,15.32,5.53,21.77c3.66,6.45,8.73,11.57,15.07,15.23h0c6.34,3.66,13.55,5.52,21.43,5.52.12,0,.23,0,.35,0-7.86-.05-15.05-1.9-21.35-5.52-6.41-3.67-11.51-8.8-15.18-15.26-3.66-6.45-5.51-13.76-5.51-21.74s1.82-15.28,5.42-21.73c3.61-6.47,8.7-11.59,15.12-15.2,6.31-3.56,13.54-5.38,21.5-5.43-.11,0-.23,0-.34,0ZM700.77,590.27h.16v-115.37h-.33v65.62l-.96-2.01c.86,3.51,1.29,7.2,1.29,11.05,0,3.51-.36,6.9-1.07,10.13l.91-2.02v32.59ZM658.41,512.15c-7.22,0-13.75,1.61-19.39,4.79-5.61,3.17-10.07,7.64-13.23,13.31-3.18,5.7-4.8,12.2-4.8,19.31s1.64,13.61,4.87,19.3c3.22,5.68,7.71,10.19,13.34,13.41,5.63,3.23,12.1,4.86,19.21,4.86s13.61-1.64,19.3-4.87c5.68-3.22,10.19-7.73,13.41-13.41,3.23-5.69,4.87-12.19,4.87-19.3s-1.64-13.57-4.86-19.21c-3.22-5.63-7.74-10.12-13.41-13.34-5.69-3.23-12.19-4.87-19.3-4.87Z"/>
    <path class="cls-3" d="M776.3,579.4c-2.64,4.73-6.46,8.43-11.46,11.13-5,2.69-10.69,4.04-17.06,4.04s-11.68-1.26-16.56-3.79c-4.89-2.53-8.71-6.01-11.45-10.47-2.75-4.45-4.12-9.42-4.12-14.92s1.4-10.6,4.2-15c2.8-4.39,6.65-7.83,11.54-10.3,4.89-2.47,10.36-3.71,16.4-3.71,6.37,0,12.03,1.32,16.98,3.96,4.94,2.64,8.74,6.26,11.37,10.88v-15.66c0-7.91-2.42-14.2-7.25-18.87-4.84-4.67-11.37-7-19.61-7-4.84,0-9.62.85-14.34,2.56-4.73,1.7-9.18,4.2-13.35,7.5l-2.64-4.29c4.62-3.52,9.56-6.18,14.83-7.99,5.27-1.81,10.44-2.72,15.49-2.72,9.67,0,17.44,2.8,23.32,8.41,5.88,5.6,8.82,13.08,8.82,22.41v57.19h-4.78l-.33-13.35ZM768.39,582.94c5.16-4.56,7.75-10.41,7.75-17.55s-2.58-12.99-7.75-17.55c-5.17-4.56-11.81-6.84-19.94-6.84s-14.75,2.25-19.86,6.76c-5.11,4.51-7.66,10.38-7.66,17.64s2.58,12.99,7.75,17.55c5.16,4.56,11.76,6.84,19.78,6.84s14.78-2.28,19.94-6.84Z"/>
    <path class="cls-3" d="M747.79,597.03c-6.53,0-12.48-1.37-17.7-4.07-5.27-2.72-9.45-6.54-12.42-11.36-2.98-4.82-4.49-10.28-4.49-16.21s1.54-11.55,4.59-16.33c3.03-4.76,7.24-8.52,12.51-11.18,5.21-2.64,11.11-3.97,17.51-3.97,6.75,0,12.86,1.43,18.14,4.25,2.94,1.57,5.53,3.48,7.74,5.73v-8.33c0-7.28-2.13-12.87-6.5-17.09-4.4-4.25-10.25-6.31-17.9-6.31-4.53,0-9.07.81-13.5,2.41-4.45,1.61-8.71,4-12.66,7.11l-2.18,1.72-5.27-8.56,1.78-1.36c4.81-3.66,10.03-6.48,15.53-8.36,5.51-1.89,11-2.85,16.3-2.85,10.28,0,18.7,3.06,25.03,9.09,6.36,6.06,9.58,14.21,9.58,24.2v59.67h-9.66l-.21-8.56c-2.26,2.37-4.93,4.39-7.99,6.04-5.34,2.88-11.48,4.33-18.23,4.33ZM724.86,547.95c-1.09,1.16-2.06,2.41-2.92,3.76-2.53,3.97-3.81,8.57-3.81,13.67s1.26,9.59,3.75,13.62c2.49,4.05,6.02,7.26,10.48,9.57,1.07.55,2.18,1.04,3.32,1.47-3.2-1.24-6.09-2.99-8.65-5.24-5.69-5.03-8.58-11.55-8.58-19.41,0-6.9,2.15-12.75,6.41-17.43ZM748.45,543.46c-7.47,0-13.61,2.07-18.23,6.14-4.59,4.05-6.83,9.22-6.83,15.78s2.26,11.6,6.91,15.7c4.74,4.19,10.67,6.22,18.14,6.22s13.57-2.04,18.31-6.22h0c4.65-4.11,6.91-9.24,6.91-15.7s-2.26-11.59-6.91-15.7c-4.68-4.13-10.84-6.22-18.31-6.22ZM778.55,570.29l.39,15.74v-50.49c0-8.71-2.63-15.46-8.05-20.62-5.38-5.13-12.65-7.72-21.62-7.72-.15,0-.3,0-.45,0,9.03-.07,16.4,2.5,21.78,7.7,5.31,5.14,8.01,12.08,8.01,20.65v24.97l-.6-1.04c.4,1.88.6,3.85.6,5.91s-.2,3.99-.58,5.85l.52-.94ZM722.25,516.09l.02.03c1.43-1.02,2.9-1.95,4.4-2.8-1.51.84-2.98,1.76-4.42,2.76Z"/>
    <path class="cls-3" d="M823.73,587.47l-33.95-80.93h5.6l20.11,47.96,11.04,27.03,10.71-26.54,19.78-48.46h5.77l-48.29,117.85h-5.77l15-36.92Z"/>
    <path class="cls-3" d="M816.16,626.86h-11.1l16-39.38-35-83.41h10.97l20.74,49.48,8.75,21.42,8.43-20.89,20.41-50h11.12l-50.32,122.79ZM812.41,621.92h.44l46.27-112.9h-.42l-19.15,46.92-12.99,32.18-.2-.5-13.94,34.31ZM793.5,509.02l28.11,67-8.41-20.58-19.46-46.42h-.24Z"/>
    <path class="cls-3" d="M878.08,588.71c-5.32-3.9-9.07-9.31-11.26-16.23l4.69-1.65c1.98,6.04,5.19,10.71,9.62,14.01,4.43,3.3,9.62,4.94,15.56,4.94,6.46,0,11.73-1.7,15.8-5.11,4.07-3.4,6.1-7.8,6.1-13.19,0-3.95-1.02-7.14-3.05-9.56-2.03-2.42-4.48-4.31-7.35-5.69-2.87-1.37-7.17-3.1-12.9-5.19-5.74-2.09-10.32-4.09-13.77-6.02-3.44-1.92-6.18-4.37-8.21-7.33-2.03-2.97-3.05-6.7-3.05-11.21,0-6.37,2.37-11.59,7.12-15.66,4.74-4.06,10.82-6.1,18.22-6.1,6.15,0,11.65,1.68,16.5,5.03,4.85,3.35,8.26,7.89,10.25,13.6l-4.38,1.81c-1.67-4.94-4.51-8.79-8.52-11.54-4.02-2.75-8.63-4.12-13.84-4.12-6.15,0-11.11,1.54-14.86,4.61-3.75,3.08-5.63,7.14-5.63,12.2,0,3.74.86,6.79,2.58,9.15,1.72,2.36,4.07,4.31,7.04,5.85,2.97,1.54,7.12,3.24,12.44,5.11,5.73,2.09,10.38,4.04,13.92,5.85,3.54,1.81,6.49,4.28,8.84,7.42,2.35,3.13,3.52,7.12,3.52,11.95,0,4.4-1.15,8.32-3.44,11.78-2.3,3.46-5.47,6.18-9.54,8.16-4.07,1.98-8.66,2.97-13.76,2.97-7.09,0-13.3-1.95-18.61-5.85Z"/>
    <path class="cls-3" d="M896.69,596.97c-7.58,0-14.32-2.13-20.04-6.32-5.71-4.19-9.8-10.06-12.13-17.45l-.7-2.22,9.22-3.24.77,2.34c1.81,5.53,4.76,9.85,8.77,12.83,4.04,3.01,8.66,4.47,14.13,4.47,5.85,0,10.65-1.53,14.25-4.55,3.53-2.95,5.24-6.66,5.24-11.34,0-3.4-.81-6.02-2.49-8.01-1.8-2.14-4-3.84-6.55-5.07-2.8-1.34-7.06-3.05-12.69-5.1-5.82-2.11-10.57-4.19-14.12-6.18-3.75-2.09-6.79-4.81-9.02-8.08-2.3-3.36-3.47-7.59-3.47-12.57,0-7.08,2.68-12.96,7.96-17.49,5.17-4.43,11.83-6.68,19.79-6.68,6.62,0,12.63,1.83,17.87,5.45,5.26,3.63,9.01,8.61,11.15,14.79l.74,2.15-8.86,3.67-.82-2.44c-1.51-4.48-4-7.85-7.6-10.32-3.59-2.45-7.79-3.7-12.48-3.7-5.55,0-10.04,1.37-13.33,4.07-3.2,2.62-4.75,6-4.75,10.33,0,3.2.71,5.8,2.12,7.73,1.49,2.05,3.58,3.77,6.2,5.13,2.86,1.48,6.94,3.16,12.13,4.98,5.83,2.12,10.61,4.13,14.22,5.98,3.86,1.97,7.11,4.71,9.67,8.12,2.65,3.54,4,8.05,4,13.39,0,4.85-1.29,9.27-3.84,13.11-2.53,3.81-6.06,6.84-10.5,9-4.38,2.13-9.36,3.21-14.82,3.21ZM869.88,573.95c2.09,5.36,5.32,9.67,9.61,12.82h0c2.65,1.95,5.58,3.37,8.74,4.26-3.09-.9-5.95-2.32-8.56-4.26-4.23-3.15-7.47-7.47-9.63-12.88l-.17.06ZM885.47,544.37c2.92,1.42,6.49,2.9,10.64,4.41,5.77,2.1,10.18,3.88,13.12,5.28,3.17,1.52,5.91,3.64,8.16,6.31,2.4,2.86,3.62,6.59,3.62,11.11,0,3.77-.89,7.14-2.67,10.08,1.81-2.95,2.7-6.2,2.7-9.92,0-4.28-1.02-7.81-3.04-10.51-2.11-2.82-4.81-5.08-8.01-6.72-3.44-1.76-8.03-3.69-13.65-5.73-4.37-1.53-8.01-2.98-10.87-4.32ZM873.17,521.9c-.34,1.44-.5,2.97-.5,4.59,0,3.99.88,7.3,2.63,9.85,1.16,1.69,2.6,3.21,4.29,4.54-1.49-1.18-2.78-2.52-3.85-3.98-2.02-2.77-3.04-6.32-3.04-10.56,0-1.55.16-3.03.47-4.42Z"/>
    <rect class="cls-3" x="695.66" y="466.35" width="10.22" height="24.37"/>
    <path class="cls-3" d="M397.25,471.23c-5.45-4.58-9.02-11.22-10.7-19.92l4.12-.83c1.51,7.68,4.58,13.49,9.24,17.42,4.65,3.93,9.99,5.9,16.01,5.9,7.26,0,13.15-2.22,17.67-6.66,4.52-4.44,6.78-10.23,6.78-17.35,0-4.81-1.11-9.12-3.32-12.91-2.22-3.8-5.36-6.73-9.43-8.82-4.08-2.08-8.73-3.12-13.95-3.12h-5.18v-3.05l26.71-38.18h-45.18v-4.3h51.16v2.92l-27.24,38.6c5.85,0,11.12,1.23,15.81,3.68,4.69,2.45,8.37,5.86,11.03,10.21,2.66,4.35,3.99,9.35,3.99,14.99s-1.22,10.34-3.65,14.65c-2.44,4.3-5.85,7.66-10.23,10.07-4.38,2.41-9.37,3.61-14.95,3.61-7,0-13.22-2.29-18.67-6.87Z"/>
    <path class="cls-3" d="M415.92,480.93c-7.69,0-14.62-2.55-20.6-7.57h0c-5.93-4.99-9.85-12.24-11.65-21.53l-.52-2.71,9.85-1.99.55,2.83c1.37,7.01,4.16,12.34,8.29,15.83,4.14,3.5,8.74,5.2,14.08,5.2,6.5,0,11.6-1.9,15.58-5.82,4-3.93,5.94-8.96,5.94-15.38,0-4.3-.99-8.18-2.95-11.53-1.95-3.34-4.65-5.87-8.25-7.71-3.63-1.85-7.86-2.79-12.58-2.79h-8.11v-6.74l24.13-34.5h-42.6v-9.95h57.02v6.6l-24.87,35.24c4.28.55,8.27,1.78,11.91,3.69,5.15,2.69,9.24,6.48,12.16,11.25,2.91,4.77,4.39,10.3,4.39,16.43s-1.35,11.29-4.01,16c-2.69,4.76-6.51,8.51-11.35,11.17-4.81,2.64-10.33,3.98-16.4,3.98Z"/>
    <path class="cls-3" d="M472.27,473.89c-4.87-3.7-8.71-9.32-11.54-16.87-2.82-7.54-4.24-16.78-4.24-27.7s1.41-20.15,4.24-27.7c2.82-7.54,6.67-13.17,11.54-16.87,4.87-3.7,10.34-5.55,16.42-5.55s11.56,1.85,16.42,5.55c4.87,3.7,8.71,9.33,11.54,16.87,2.82,7.55,4.24,16.78,4.24,27.7s-1.41,20.16-4.24,27.7c-2.82,7.55-6.67,13.17-11.54,16.87-4.87,3.7-10.34,5.55-16.42,5.55s-11.56-1.85-16.42-5.55ZM503.1,470.21c4.21-3.29,7.54-8.38,9.97-15.27,2.43-6.89,3.65-15.43,3.65-25.62s-1.22-18.72-3.65-25.62c-2.43-6.89-5.76-11.99-9.97-15.27-4.22-3.28-9.02-4.93-14.4-4.93s-10.19,1.64-14.4,4.93c-4.22,3.29-7.54,8.38-9.97,15.27-2.43,6.9-3.65,15.44-3.65,25.62s1.22,18.72,3.65,25.62c2.43,6.9,5.76,11.99,9.97,15.27,4.21,3.29,9.01,4.93,14.4,4.93s10.19-1.64,14.4-4.93Z"/>
    <path class="cls-3" d="M488.69,482.27c-6.77,0-12.94-2.08-18.34-6.19-5.28-4.02-9.48-10.12-12.48-18.12-2.92-7.8-4.4-17.44-4.4-28.63s1.48-20.82,4.4-28.63c3-8.01,7.2-14.1,12.48-18.12,5.4-4.11,11.57-6.19,18.34-6.19s12.94,2.08,18.34,6.19c5.28,4.02,9.48,10.12,12.48,18.12,2.92,7.81,4.41,17.44,4.41,28.63s-1.48,20.82-4.41,28.63c-3,8.01-7.2,14.11-12.48,18.12-5.4,4.11-11.57,6.19-18.34,6.19ZM488.69,386.33c-4.7,0-8.77,1.4-12.46,4.27-3.76,2.93-6.8,7.63-9.04,13.99-2.32,6.58-3.5,14.9-3.5,24.74s1.18,18.16,3.5,24.73c2.24,6.36,5.28,11.06,9.04,13.99,3.69,2.87,7.76,4.27,12.46,4.27s8.77-1.4,12.46-4.27h0c3.75-2.93,6.79-7.63,9.04-13.99,2.32-6.58,3.5-14.9,3.5-24.73s-1.18-18.15-3.5-24.74c-2.24-6.35-5.28-11.06-9.04-13.99-3.69-2.87-7.76-4.27-12.46-4.27Z"/>
  </g>

  <!-- ═══ Icon stage (palms + sun) — zooms big then settles ═══ -->
  <g class="icon-stage">

  <!-- ═══ Teal palm tree ═══ -->
  <g class="palm-teal-grp">
    <path class="cls-2" d="M183.74,426.6c-5.19-9.02-11.02-16.1-20.5-17.97-3.91-.77-7.72-.22-11.31,1.86-3.01,1.75-5.21,4.27-6.03,8.07-.19.9-.42,1.8-.74,2.66-.91,2.44-3.09,3.9-5.04,3.46-2.15-.48-3.72-2.77-3.48-5.52.34-3.97,1.62-7.63,3.83-10.8,3.97-5.69,9.35-8.69,15.6-9.77,7.46-1.28,14.26.78,20.55,5.1,4.58,3.14,8.34,7.27,11.81,12.68-.02-1.17.06-1.72-.06-2.22-1.17-5.09-2.78-9.98-5.22-14.48-2.94-5.43-6.99-9.4-12.38-11.6-1.38-.56-2.78-1.11-4.05-1.91-2-1.25-2.87-3.63-2.29-5.72.62-2.22,2.67-3.63,5.06-3.36.72.08,1.44.32,2.13.58,14.4,5.25,21.88,17,24.75,33.05.32,1.78.5,3.6,1.33,5.84.51-.72.95-1.52,1.55-2.13,7.4-7.59,15.98-12.45,26-13.39,14.3-1.34,22.19,4.9,28.66,16.23.43.76.7,1.67.89,2.56.46,2.18-.15,4.21-1.57,5.22-1.69,1.21-3.37.88-4.93-.27-.68-.5-1.25-1.19-1.8-1.87-.49-.61-.89-1.3-1.3-1.98-5.1-8.62-12.42-11.31-21.32-9.61-9.48,1.81-16.88,7.57-23.04,15.59-.1.14-.1.38-.17.65,1.29.44,2.62.79,3.88,1.33,4.35,1.89,7.69,5.15,10.04,9.6,3.23,6.15,5.08,12.91,6.46,19.84.28,1.42.12,3.12-.3,4.53-.91,3.09-3.98,4.02-5.94,1.68-1.26-1.5-2.11-3.55-2.78-5.51-1.28-3.72-2.06-7.67-3.49-11.31-1.08-2.77-2.69-5.33-4.33-7.75-1.35-1.99-3.36-3.14-5.67-3.42-2.26-.28-3.06.53-3.93,2.84-1.13,3.03-1.29,6.17-1.5,9.34-1.22,18.37-2.74,36.73-3.6,55.12-.76,16.43-.86,32.91,1.45,49.2.57,4.04,1.45,8.04,2.49,11.96,3.11,11.8,10.47,18.36,21.13,20.62,2.34.5,4.73.75,7.1,1.11.73.11,1.47.16,2.18.35,2.75.75,4.35,3.09,3.95,5.7-.42,2.73-2.47,4.42-5.34,4.19-2.39-.19-4.79-.41-7.13-.92-2.97-.64-5.95-1.37-8.82-2.44-9.8-3.67-16.59-10.95-20.47-21.63-2.69-7.37-3.98-15.12-4.75-23-1.03-10.52-1.21-21.09-1.12-31.7.15-18.02,1.35-35.99,2.88-53.92.76-8.89,2.46-17.69,3.73-26.54.04-.29.04-.59.06-1.07-1.75-.6-3.45.04-5.09.54-4.47,1.36-8.25,4.16-11.73,7.48-3.69,3.52-6.89,7.58-9.46,12.15-3.83,6.83-7.4,13.84-11.16,20.73-1.1,2.01-2.34,3.98-3.75,5.73-1.45,1.8-3.29,2.1-4.75,1.14-1.65-1.09-2.07-2.85-1.65-4.8.39-1.79.82-3.64,1.58-5.25,4.15-8.78,8.52-17.43,13.75-25.49,1.14-1.76,2.36-3.46,3.64-5.1,6.69-8.57,14.38-15.28,25.47-16.31Z"/>
  </g>

  <!-- ═══ Coral palm trunk ═══ -->
  <g class="palm-coral-grp">
    <path class="cls-1" d="M228.1,501.05c.42-12.48,1.56-23.34,3.68-34.07.19-.95.44-1.93.86-2.76.85-1.69,2.5-2.35,3.89-1.73,1.53.69,2.3,2.5,2.08,4.5-.46,4.2-.97,8.41-1.21,12.63-.52,9.16-1.11,18.32-1.27,27.48-.35,19.15.38,38.22,4.14,56.85,1.03,5.12,2.59,10.11,4.21,15.01.73,2.22,2.05,4.24,3.37,6.06,1.54,2.11,3.14,2.3,5.08.6,1.66-1.46,3.34-3.13,4.51-5.12,2.54-4.3,5.01-8.71,7.07-13.35,5.65-12.69,9.57-26.19,13.28-39.77,3.58-13.09,7.06-26.22,10.73-39.28,1.96-6.96,4.48-13.68,7.68-20.01,2.47-4.89,5.36-9.39,9.17-12.95,3.16-2.95,6.65-4.96,10.65-5.54,4.94-.71,9.36.83,13.34,4.15,4.14,3.46,7.01,8.17,9.21,13.52,2.74,6.65,4.23,13.77,5.23,21.07,1.47,10.68,2.02,21.49,2.12,32.32.13,14.67.04,29.35.08,44.02.01,4.23.1,8.47.27,12.69.07,1.65.41,3.29.73,4.9.53,2.67-.38,5.17-2.36,6.16-2.08,1.05-4.51.05-5.34-2.61-.65-2.07-1.02-4.37-1.07-6.59-.19-8.16-.23-16.34-.26-24.51-.05-18.61.31-37.24-1.23-55.76-.62-7.45-1.5-14.85-3.67-21.88-.93-3.02-2.01-6.04-3.46-8.72-1.31-2.42-3.01-4.67-4.91-6.46-3.88-3.66-8.47-3.7-12.76-.56-2.61,1.91-4.66,4.53-6.46,7.43-2.85,4.6-4.97,9.66-6.84,14.87-3.73,10.43-6.44,21.25-9.27,32.03-4.19,15.98-8.29,32.01-14.22,47.28-2.37,6.11-5.14,12.04-8,17.87-1.46,2.98-3.41,5.66-5.34,8.27-1.26,1.7-2.77,3.21-4.36,4.47-5.5,4.4-11.23,3.64-15.74-1.92-2.49-3.07-4.15-6.77-5.54-10.67-2.71-7.61-4.29-15.63-5.46-23.77-1.95-13.58-2.81-27.3-2.75-41.12.02-5.52.09-11.03.13-15.02Z"/>
  </g>

  <!-- ═══ Sun + rays ═══ -->
  <g class="sun-grp">
    <g class="sun-body">
      <path class="cls-4" d="M313,400.23c7.56.42,11.8,3.52,12.86,8.62.38,1.85.37,3.93-.03,5.78-2.02,9.18-12.67,17.04-22.04,16.33-5.39-.4-9.52-2.91-11.6-8.03-2.1-5.17-1.37-10.26,2.57-14.12,5.43-5.33,12.24-8.13,18.24-8.58ZM313.41,409.8c-1.6-.05-3.64.83-5.6,1.93-2.2,1.23-4.42,2.42-6.55,3.76-.53.33-1.04,1.18-1.03,1.78.05,2.61,2.42,4.52,5.29,4.13,5.13-.7,8.73-3.6,10.78-8.32.91-2.08.16-3.05-2.89-3.29Z"/>
      <path class="cls-4" d="M313.41,409.8c3.05.23,3.79,1.2,2.89,3.29-2.05,4.71-5.64,7.62-10.78,8.32-2.87.39-5.24-1.52-5.29-4.13-.01-.6.5-1.45,1.03-1.78,2.13-1.34,4.36-2.53,6.55-3.76,1.97-1.1,4.01-1.98,5.6-1.93Z"/>
    </g>
    <g class="sun-rays">
      <path class="cls-4 ray-1" d="M270.3,402.32c1.64.17,3.11,1.08,4.36,2.38,2.16,2.25,4.29,4.54,6.48,6.77,1.43,1.46,2.97,2.82,4.41,4.27,1.62,1.63,1.84,3.43.7,5-1.12,1.55-3,1.94-4.96.98-.69-.34-1.38-.75-1.97-1.24-3.72-3.15-7.44-6.31-11.1-9.53-1.53-1.34-2.44-3.04-2.15-5.18.28-2.11,1.91-3.5,4.23-3.44Z"/>
      <path class="cls-4 ray-2" d="M282.57,388.91c.58.41,1.75,1.07,2.68,1.98.59.58.87,1.51,1.17,2.32,1.16,3.1,2.3,6.21,3.39,9.34.73,2.09.1,3.87-1.57,4.8-1.68.93-3.77.62-4.83-1.32-2.03-3.75-3.98-7.61-5.42-11.61-1.06-2.94,1.13-5.62,4.58-5.5Z"/>
      <path class="cls-4 ray-3" d="M295.81,389.05c.12-2.15.1-3.63.33-5.07.16-1.03.51-2.1,1.06-2.97.83-1.31,2.14-1.95,3.76-1.73,1.63.22,2.66,1.22,3.17,2.67.28.8.39,1.73.3,2.57-.33,3.39-.71,6.78-1.2,10.15-.36,2.47-1.76,3.77-3.72,3.72-1.92-.05-3.31-1.43-3.56-3.92-.21-2.02-.12-4.08-.15-5.43Z"/>
      <path class="cls-4 ray-4" d="M333.52,416.7c3,.34,6.02.61,9,1.07,1.12.17,2.24.68,3.22,1.27,1.35.82,1.91,2.18,1.72,3.77-.19,1.63-1.19,2.7-2.68,3.14-.99.3-2.14.47-3.14.28-3.35-.64-6.68-1.4-9.98-2.25-2.67-.69-3.88-2.86-2.99-5.04.72-1.78,2.37-2.57,4.85-2.24Z"/>
      <path class="cls-4 ray-5" d="M329.07,383.32c-.38.73-.75,1.88-1.46,2.76-1.95,2.44-4.02,4.78-6.09,7.12-1.18,1.33-2.62,2.04-4.44,1.31-1.95-.78-3.04-2.93-1.9-4.79,2.07-3.4,4.39-6.67,6.88-9.78,1.13-1.41,2.99-1.81,4.82-.88,1.58.81,2.1,2.2,2.19,4.27Z"/>
      <path class="cls-4 ray-6" d="M334.29,405.69c-2.62-.21-4.03-1.35-4.39-2.98-.34-1.59.42-3.39,2.18-4.01,2.92-1.03,5.93-1.92,8.96-2.55,2.08-.43,4.05,1.01,4.57,2.81.56,1.94-.49,4.24-2.69,4.88-3.07.89-6.26,1.36-8.64,1.85Z"/>
    </g>
  </g>

  </g> <!-- /icon-stage -->
</svg>
